# xmcd CD database file
#
# Track frame offsets:
#	150
#	8817
#	32649
#	51237
#	75456
#	98836
#	116821
#	138379
#	161470
#	166328
#	173139
#	189319
#	191566
#	193051
#	210568
#	229423
#	238101
#
# Disc length: 3292 seconds
#
# Revision: 2
# Processed by: cddbd v1.5.2PL0 Copyright (c) Steve Scherf et al.
# Submitted via: CDex 1.70beta2
#
DISCID=e10cda11
DTITLE=X-Ecutioners - Scratchology
DYEAR=2003
DGENRE=Turntablism
TTITLE0=X-Ecutioners - Intro - What Is a Scratch?
TTITLE1=Grandmaster Flash and the Furious 5 - The Adventures of Grandmaster Flash on the Wheels of Steel
TTITLE2=Grand Wizard Theodore - Military Cut (Scratch Mix)
TTITLE3=Herbie Hancock - Rockit
TTITLE4=Mixmaster Gee and The Turntable Orchestra - Like This (Full and Fresh)
TTITLE5=Rob Swift feat. DJ Klever and DJ Melo-D - 2-3 Break
TTITLE6=DJ Cash Money and Marvelous Marvin - Ugly People Be Quiet
TTITLE7=3rd Bass - Product of the Environment (Remix)
TTITLE8=Davy DMX - One for the Treble
TTITLE9=Public Enemy - Shut Em Down (Pete Rock Mix)
TTITLE10=Gang Starr - DJ Premier in Deep Concentration
TTITLE11=X-Ecutioners - Interlude
TTITLE12=X-Ecutioners - Interlude
TTITLE13=D-Styles feat. Melo-D, Babu and DJ Qbert - Felonious Funk
TTITLE14=X-Ecutioners feat. DJ Premier - Premiers X-Ecution
TTITLE15=Roc Raida - I'll Kick Ya Ass
TTITLE16=DJ QBert and D-Styles - Razorblade Alcohol Slide
EXTD=YEAR: 2003
EXTT0=
EXTT1=
EXTT2=
EXTT3=
EXTT4=
EXTT5=
EXTT6=
EXTT7=
EXTT8=
EXTT9=
EXTT10=
EXTT11=
EXTT12=
EXTT13=
EXTT14=
EXTT15=
EXTT16=
PLAYORDER=
